<?xml version="1.0" encoding="iso-8859-1"?>
<!-- Generator: Adobe Illustrator 16.0.0, SVG Export Plug-In . SVG Version: 6.00 Build 0)  -->
<!DOCTYPE svg PUBLIC "-//W3C//DTD SVG 1.1//EN" "http://www.w3.org/Graphics/SVG/1.1/DTD/svg11.dtd">
<svg xmlns="http://www.w3.org/2000/svg" xmlns:xlink="http://www.w3.org/1999/xlink" version="1.1" id="Capa_1" x="0px" y="0px" width="512px" height="512px" viewBox="0 0 785.444 785.443" style="enable-background:new 0 0 785.444 785.443;" xml:space="preserve">
<g>
	<g>
		<ellipse cx="337.465" cy="197.378" rx="67.539" ry="67.384" fill="#006DF0"/>
		<path d="M224.903,301.516v220.527c0,9.023,7.33,16.334,16.371,16.334c9.044,0,16.374-7.312,16.374-16.334V317.851h24.558v451.258    c0,9.029,7.333,16.334,16.374,16.334c9.043,0,16.373-7.305,16.373-16.334V511.834h57.305v257.273    c0,9.029,7.333,16.334,16.372,16.334c9.042,0,16.374-7.305,16.374-16.334V317.851h96.188c4.886,0,9.521-2.186,12.63-5.932    l67.534-81.677c5.757-6.974,4.77-17.261-2.213-23.004c-6.954-5.725-17.291-4.752-23.049,2.203l-62.619,75.74H241.274    C232.233,285.18,224.903,292.486,224.903,301.516z" fill="#006DF0"/>
		<path d="M731.089,495.498V16.335c0-9.03-7.333-16.335-16.372-16.335H70.728c-9.04,0-16.374,7.305-16.374,16.335v479.163    c0,9.027,7.333,16.334,16.374,16.334h98.237c9.042,0,16.373-7.307,16.373-16.334c0-9.029-7.332-16.336-16.373-16.336H87.101V32.67    h611.243v446.492H463.658c-9.045,0-16.371,7.307-16.371,16.336c0,9.027,7.326,16.334,16.371,16.334h251.062    C723.758,511.834,731.089,504.527,731.089,495.498z" fill="#006DF0"/>
	</g>
</g>
<g>
</g>
<g>
</g>
<g>
</g>
<g>
</g>
<g>
</g>
<g>
</g>
<g>
</g>
<g>
</g>
<g>
</g>
<g>
</g>
<g>
</g>
<g>
</g>
<g>
</g>
<g>
</g>
<g>
</g>
</svg>
